<svg xmlns="http://www.w3.org/2000/svg" width="1280" height="640" viewBox="0 0 1280 640">
  <defs>
    <linearGradient id="bg" x1="0%" y1="0%" x2="100%" y2="100%">
      <stop offset="0%" stop-color="#0b0e11"/>
      <stop offset="100%" stop-color="#1e2329"/>
    </linearGradient>
    <linearGradient id="gold" x1="0%" y1="0%" x2="100%" y2="0%">
      <stop offset="0%" stop-color="#f0b90b"/>
      <stop offset="100%" stop-color="#f8d66d"/>
    </linearGradient>
    <filter id="shadow" x="-20%" y="-20%" width="140%" height="140%">
      <feDropShadow dx="0" dy="8" stdDeviation="14" flood-color="#000" flood-opacity="0.35"/>
    </filter>
  </defs>

  <rect width="1280" height="640" fill="url(#bg)"/>

  <circle cx="110" cy="98" r="4" fill="#f0b90b"/>
  <circle cx="140" cy="98" r="4" fill="#f0b90b"/>
  <circle cx="170" cy="98" r="4" fill="#f0b90b"/>
  <circle cx="1200" cy="520" r="3" fill="#f0b90b" opacity="0.7"/>
  <circle cx="1168" cy="548" r="2" fill="#f0b90b" opacity="0.6"/>
  <circle cx="1218" cy="566" r="2" fill="#f0b90b" opacity="0.5"/>

  <rect x="72" y="72" width="1136" height="496" rx="24" fill="#11161d" stroke="#2b3139" stroke-width="2" filter="url(#shadow)"/>

  <text x="120" y="170" font-size="56" font-weight="700" fill="url(#gold)" font-family="DejaVu Sans, Arial, sans-serif">
    OpenClaw x Binance AI Agent
  </text>
  <text x="120" y="226" font-size="30" fill="#eaecef" font-family="DejaVu Sans, Arial, sans-serif">
    币安主题 AI 创新顾问 · 可复现 · 可演示 · 可上线
  </text>

  <rect x="120" y="272" width="1040" height="2" fill="#2b3139"/>

  <text x="120" y="330" font-size="28" fill="#f0b90b" font-family="DejaVu Sans, Arial, sans-serif">
    1) 自动创建 binance-ai Agent
  </text>
  <text x="120" y="378" font-size="28" fill="#f0b90b" font-family="DejaVu Sans, Arial, sans-serif">
    2) 一键生成图文演示稿
  </text>
  <text x="120" y="426" font-size="28" fill="#f0b90b" font-family="DejaVu Sans, Arial, sans-serif">
    3) 输出 MVP 路线图、API 架构、KPI 拆解
  </text>

  <rect x="120" y="470" width="440" height="58" rx="12" fill="#f0b90b"/>
  <text x="142" y="508" font-size="28" font-weight="700" fill="#0b0e11" font-family="DejaVu Sans, Arial, sans-serif">
    docs/demo_latest.md
  </text>
</svg>
